<?xml version="1.0" encoding="utf-8"?>
<!-- Generator: Adobe Illustrator 27.8.1, SVG Export Plug-In . SVG Version: 6.00 Build 0)  -->
<svg version="1.1" id="Capa_1" xmlns="http://www.w3.org/2000/svg" xmlns:xlink="http://www.w3.org/1999/xlink" x="0px" y="0px"
	 viewBox="0 0 44 44" style="enable-background:new 0 0 44 44;" xml:space="preserve">
<style type="text/css">
	.st0{fill:#FFFFFF;}
</style>
<g>
	<g>
		<g>
			<path class="st0" d="M22,0C14.3,0,7.9,6.3,7.9,14.1c0,3.1,0.9,5.7,2.7,8.3l10.4,16.3c0.5,0.8,1.6,0.8,2.1,0l10.5-16.4
				c1.7-2.4,2.7-5.2,2.7-8.1C36.1,6.4,29.9,0,22,0z M22,20.7c-3.6,0-6.4-2.9-6.4-6.4s2.9-6.4,6.4-6.4s6.4,2.9,6.4,6.4
				S25.6,20.7,22,20.7z"/>
		</g>
	</g>
	<g>
		<g>
			<path class="st0" d="M32.1,29.6l-6.5,10.1c-1.7,2.7-5.5,2.7-7.2,0l-6.5-10.1c-5.7,1.3-9.2,3.7-9.2,6.7c0,5.1,10,7.7,19.3,7.7
				s19.3-2.7,19.3-7.7C41.3,33.3,37.9,30.9,32.1,29.6z"/>
		</g>
	</g>
</g>
</svg>
