<?xml version="1.0" encoding="utf-8"?>
<!-- Generator: Adobe Illustrator 27.8.1, SVG Export Plug-In . SVG Version: 6.00 Build 0)  -->
<svg version="1.1" id="Layer_1" xmlns="http://www.w3.org/2000/svg" xmlns:xlink="http://www.w3.org/1999/xlink" x="0px" y="0px"
	 viewBox="0 0 44 44" style="enable-background:new 0 0 44 44;" xml:space="preserve">
<style type="text/css">
	.st0{fill:#FFFFFF;}
</style>
<g>
	<g>
		<path class="st0" d="M43.7,13.8L22.4,0.1c-0.3-0.1-0.5-0.1-0.8,0L0.3,13.8C0,13.9-0.1,14.3,0,14.6c0.1,0.3,0.4,0.5,0.7,0.5h4v28.2
			C4.7,43.7,5,44,5.4,44h33.3c0.4,0,0.7-0.3,0.7-0.7V15h4c0.4,0,0.5-0.3,0.7-0.5C44.1,14.3,44,14.1,43.7,13.8z M19.3,8.3h5.3
			c0.4,0,0.7,0.4,0.7,0.7c0,0.4-0.4,0.7-0.7,0.7h-5.3c-0.4,0-0.7-0.3-0.7-0.7C18.7,8.6,18.9,8.3,19.3,8.3z M19.3,11h5.3
			c0.4,0,0.7,0.3,0.7,0.7c0,0.4-0.3,0.7-0.7,0.7h-5.3c-0.4,0-0.7-0.3-0.7-0.7C18.7,11.3,18.9,11,19.3,11z M34,42.5h-0.5l0,0v-8.6
			c0-0.4-0.4-0.7-0.7-0.7h-2.7v2.4c0,0.4-0.3,0.7-0.7,0.7h-2.8c-0.4,0-0.7-0.3-0.7-0.7v-2.4h-2.7c-0.4,0-0.7,0.3-0.7,0.7v8.6l0,0
			h-1.1l0,0v-8.6c0-0.4-0.4-0.7-0.7-0.7h-2.7v2.4c0,0.4-0.3,0.7-0.7,0.7h-2.8c-0.4,0-0.7-0.3-0.7-0.7v-2.4h-2.7
			c-0.4,0-0.7,0.3-0.7,0.7v8.6l0,0H10V21H34V42.5z"/>
		<path class="st0" d="M21.2,22.4h1.5V24h-1.5V22.4z"/>
		<path class="st0" d="M17.2,32.4h9.6c0.4,0,0.7-0.3,0.7-0.7v-8.6c0-0.4-0.4-0.7-0.7-0.7h-2.7v2.4c0,0.4-0.3,0.7-0.7,0.7h-2.8
			c-0.4,0-0.7-0.3-0.7-0.7v-2.4h-2.7c-0.4,0-0.7,0.3-0.7,0.7v8.6C16.5,32.2,16.8,32.4,17.2,32.4z"/>
		<path class="st0" d="M27.3,33.1h1.5v1.6h-1.5V33.1z"/>
		<path class="st0" d="M15.2,33.1h1.5v1.6h-1.5V33.1z"/>
	</g>
</g>
</svg>
