<svg width="84" height="84" viewBox="0 0 84 84" fill="none" xmlns="http://www.w3.org/2000/svg">
<path d="M41 64.0001V12.0001H74V64.0001H41Z" stroke="#5A81E5" stroke-width="2"/>
<path d="M79 66H36V73H79V66Z" fill="#25408F"/>
<path d="M65 48.0001H51V55.0001H65V48.0001Z" fill="#B6CDFF"/>
<path d="M64 49.0002V54.0002H52V49.0002H64ZM66 47.0002H50V56.0002H66V47.0002Z" fill="#25408F"/>
<path d="M48 40.0002C49.6569 40.0002 51 38.657 51 37.0002C51 35.3433 49.6569 34.0002 48 34.0002C46.3431 34.0002 45 35.3433 45 37.0002C45 38.657 46.3431 40.0002 48 40.0002Z" fill="#B6CDFF"/>
<path d="M60 23C61.1046 23 62 22.1045 62 21C62 19.8954 61.1046 19 60 19C58.8954 19 58 19.8954 58 21C58 22.1045 58.8954 23 60 23Z" fill="#B6CDFF"/>
<path d="M11.5 32C15.0899 32 18 29.0898 18 25.5C18 21.9101 15.0899 19 11.5 19C7.91015 19 5 21.9101 5 25.5C5 29.0898 7.91015 32 11.5 32Z" fill="#25408F"/>
<path d="M9.93004 32C9.93004 32 8.00004 32.11 8.00004 34.94V55C8.00004 55.54 6.35004 64.74 5.52004 69.93C5.28004 71.44 6.42004 72.81 7.93004 72.81C9.11004 72.81 10.12 71.95 10.33 70.77L11.93 61.81L13.5 70.6C13.73 71.88 14.82 72.81 16.1 72.81C17.58 72.81 18.78 71.57 18.74 70.06C18.63 65.29 18.8 56.81 17.82 54.81C17.11 53.37 17.01 40 17.01 40C17.01 40 18.01 45 22.01 46H33.01C33.82 46 35.01 44.83 35.01 44C35.01 43.17 33.82 42 33.01 42H23.71L14.75 32H9.94004H9.93004Z" fill="#25408F"/>
<path d="M23 38.0001L21 36.0001H33C33.55 36.0001 34 36.4501 34 37.0001V39.0001C34 39.0001 33.67 38.0001 33 38.0001H23Z" fill="#B6CDFF"/>
<path d="M21 49.0002L20 51.0002H35C35.55 51.0002 36 50.5502 36 50.0002V47.0002C36 47.0002 36 49.0002 34 49.0002H21Z" fill="#B6CDFF"/>
</svg>
