<svg width="69" height="61" viewBox="0 0 69 61" fill="none" xmlns="http://www.w3.org/2000/svg">
<path d="M57.89 3C62.36 3 66 6.64 66 11.11V49.89C66 54.36 62.36 58 57.89 58H11.11C6.64 58 3 54.36 3 49.89V11.11C3 6.64 6.64 3 11.11 3H57.89ZM57.89 0H11.11C4.97 0 0 4.97 0 11.11V49.89C0 56.03 4.97 61 11.11 61H57.89C64.03 61 69 56.03 69 49.89V11.11C69 4.97 64.03 0 57.89 0Z" fill="#25408F"/>
<path d="M67 10H2V13H67V10Z" fill="#25408F"/>
<path d="M44 39.9998H41V51.9998H44V39.9998Z" fill="#5A81E5"/>
<path d="M51 34.9998H48V51.9998H51V34.9998Z" fill="#25408F"/>
<path d="M58 27.9998H55V51.9998H58V27.9998Z" fill="#5A81E5"/>
<path d="M34.95 38.9998C34.44 32.8398 29.29 27.9998 23 27.9998V38.9998H34.95Z" fill="#25408F"/>
<path d="M22 39.9998V28.0498C15.84 28.5598 11 33.7098 11 39.9998C11 46.6298 16.37 51.9998 23 51.9998C29.63 51.9998 35 46.6298 35 39.9998H22Z" fill="#5A81E5"/>
<path d="M22 16.9998H10V22.9998H22V16.9998Z" fill="#B6CDFF"/>
<path d="M40 16.9998H27V22.9998H40V16.9998Z" fill="#B6CDFF"/>
<path d="M58 16.9998H45V22.9998H58V16.9998Z" fill="#B6CDFF"/>
</svg>
