<?xml version="1.0" encoding="utf-8"?>
<!-- Generator: Adobe Illustrator 27.8.1, SVG Export Plug-In . SVG Version: 6.00 Build 0)  -->
<svg version="1.1" id="Layer_1" xmlns="http://www.w3.org/2000/svg" xmlns:xlink="http://www.w3.org/1999/xlink" x="0px" y="0px"
	 viewBox="0 0 44 44" style="enable-background:new 0 0 44 44;" xml:space="preserve">
<style type="text/css">
	.st0{fill:#FFFFFF;}
</style>
<g>
	<path class="st0" d="M29.4,4L9.8,14L2,10.3l19.1-9.5c0.4-0.3,0.9-0.3,1.4,0L29.4,4z"/>
	<path class="st0" d="M41.7,10.1l-19.8,9.8l-7.4-3.6l-1-0.5L33,5.7l1,0.5L41.7,10.1z"/>
	<path class="st0" d="M20.4,22.7v20.7l-19-9.9c-0.5-0.3-0.9-0.9-0.9-1.4V13l8.1,3.9v7c0,0.9,0.8,1.7,1.6,1.7c0.9,0,1.6-0.8,1.6-1.7
		v-5.3l1,0.5L20.4,22.7z"/>
	<path class="st0" d="M43.4,13l-19.8,9.8v20.7L43.5,33L43.4,13z"/>
</g>
</svg>
