<svg width="64" height="35" viewBox="0 0 64 35" fill="none" xmlns="http://www.w3.org/2000/svg">
<path d="M10.98 20C14.5698 20 17.48 17.0899 17.48 13.5C17.48 9.91015 14.5698 7 10.98 7C7.39013 7 4.47998 9.91015 4.47998 13.5C4.47998 17.0899 7.39013 20 10.98 20Z" fill="#F7FBFD"/>
<path d="M51.98 20C55.5698 20 58.48 17.0899 58.48 13.5C58.48 9.91015 55.5698 7 51.98 7C48.3901 7 45.48 9.91015 45.48 13.5C45.48 17.0899 48.3901 20 51.98 20Z" fill="#F7FBFD"/>
<path d="M30.48 16C34.8983 16 38.48 12.4183 38.48 8C38.48 3.58172 34.8983 0 30.48 0C26.0617 0 22.48 3.58172 22.48 8C22.48 12.4183 26.0617 16 30.48 16Z" fill="#F7FBFD"/>
<path d="M43.63 35C45.24 35 45.24 33.22 45.24 31.8C45.24 27 38.35 19 30.74 19C23.13 19 16.24 27 16.24 31.8C16.24 33.22 16.44 35 17.85 35H43.63Z" fill="#F7FBFD"/>
<path d="M16 31C16 28.3 17.53 25.97 19.76 24.8C17.65 22.44 14.54 20.5 11.25 20.5C5.35 20.5 0 26.75 0 30.5C0 31.61 0.15 33 1.25 33H16.29C16.1 32.37 16 31.7 16 31Z" fill="#F7FBFD"/>
<path d="M51.94 20.5C48.72 20.5 44.3 22.7 42.19 25C44.34 26.06 45.19 28.44 45.19 31C45.19 31.89 45.51 32.23 45.19 33H61.94C63.19 33 63.19 31.61 63.19 30.5C63.19 26.75 57.84 20.5 51.94 20.5Z" fill="#F7FBFD"/>
</svg>
