<svg width="84" height="84" viewBox="0 0 84 84" fill="none" xmlns="http://www.w3.org/2000/svg">
<path d="M20.1 48.9755C22.65 48.9755 25.2 48.9755 27.76 48.9755C28.79 48.9755 29.4 48.3655 29.4 47.3455C29.4 42.2955 29.4 37.2455 29.4 32.1955C29.4 31.2455 28.7701 30.6055 27.82 30.6055C22.68 30.6055 17.54 30.6055 12.4 30.6055C11.43 30.6055 10.8 31.2455 10.8 32.2255C10.8 37.2755 10.8 42.3255 10.8 47.3755C10.8 48.3555 11.43 48.9755 12.41 48.9755C14.98 48.9755 17.54 48.9755 20.11 48.9755H20.1Z" fill="#5A81E5"/>
<path d="M40.28 43.3455C40.32 42.7955 40.32 42.2555 40.39 41.7355C40.57 40.3155 40.78 38.8955 40.99 37.4855C41.02 37.2855 40.99 37.1755 40.82 37.0555C38.81 35.4855 37.24 33.5755 36.26 31.2055C36.03 30.6355 35.99 30.0655 36.25 29.5055C36.56 28.8355 37.08 28.4355 37.82 28.3455C38.55 28.2555 39.17 28.5055 39.62 29.0855C39.78 29.2855 39.89 29.5255 39.98 29.7555C40.38 30.7855 40.99 31.6855 41.72 32.5155C41.74 32.5355 41.76 32.5455 41.81 32.5855C41.87 32.2155 41.93 31.8755 41.98 31.5255C42.04 31.0055 42.15 30.4855 42.13 29.9755C42.08 28.0955 40.79 26.5955 38.94 26.2355C37.2 25.8955 35.78 26.4955 34.61 27.7655C33.82 28.6255 33.35 29.6655 32.98 30.7655C32.27 32.9055 31.91 35.1055 31.73 37.3455C31.54 39.7055 31.57 42.0555 31.78 44.4055C31.82 44.8955 31.91 45.3855 32.01 45.8655C32.36 47.4155 33.32 48.4255 34.85 48.8355C35.75 49.0755 36.68 49.2255 37.61 49.3855C40.3 49.8455 42.98 50.2955 45.67 50.7455C45.82 50.7655 45.88 50.8355 45.93 50.9655C47.08 53.7955 48.21 56.6255 49.38 59.4455C49.93 60.7655 50.95 61.4755 52.38 61.5455C53.85 61.6255 54.91 60.6055 54.94 59.1355C54.96 58.3755 54.78 57.6455 54.52 56.9355C53.41 53.8955 52.3 50.8455 51.17 47.8155C50.99 47.3255 50.76 46.8555 50.49 46.4155C49.9 45.4455 48.96 44.9855 47.89 44.7655C46.54 44.4955 45.18 44.2555 43.83 44.0155C42.72 43.8155 41.61 43.6155 40.51 43.4155C40.45 43.4055 40.39 43.3855 40.29 43.3655L40.28 43.3455Z" fill="#25408F"/>
<path d="M56.5098 62.7554C56.3998 62.7554 56.3198 62.7554 56.2398 62.7554C51.0298 62.7554 45.8198 62.7554 40.6098 62.7554C40.3098 62.7554 40.0798 62.6554 39.9598 62.3954C39.6998 61.8354 39.4198 61.2854 39.2198 60.7054C38.6598 59.1054 38.2698 57.4554 37.9198 55.7854C37.8698 55.5654 37.8698 55.3254 37.8798 55.1054C37.8798 54.8754 37.9798 54.6754 38.1898 54.5454C38.4098 54.3954 38.5098 54.1754 38.5098 53.8954C38.5098 53.0354 38.5098 52.1754 38.5098 51.3054C38.5098 50.8354 38.2098 50.5354 37.7398 50.5354C36.2398 50.5354 34.7498 50.5354 33.2498 50.5354C27.8498 50.5354 22.4398 50.5354 17.0398 50.5354C16.3998 50.5354 16.1498 50.7954 16.1498 51.4354C16.1498 52.2354 16.1498 53.0354 16.1498 53.8354C16.1498 54.2854 16.3098 54.5154 16.7398 54.6554C16.9598 54.7254 17.0998 54.8854 17.0898 55.1454C17.0798 55.3854 17.0498 55.6554 16.9398 55.8654C16.0998 57.4454 15.5898 59.1354 15.1698 60.8654C14.7998 62.3854 14.5298 63.9254 14.3498 65.4854C14.3498 65.5454 14.3498 65.6054 14.3398 65.6754H19.2398C18.7298 62.6254 19.5098 59.9754 21.7698 57.8454C23.4798 56.2354 25.5498 55.5054 27.8898 55.6354C33.0998 55.9154 36.6898 60.8254 35.6098 65.6754H56.6198C56.4298 64.7154 56.3998 63.7554 56.5298 62.7454L56.5098 62.7554Z" fill="#25408F"/>
<path d="M35.56 63.9654C35.56 59.4654 31.89 55.8054 27.38 55.8054C22.88 55.8054 19.21 59.4754 19.22 63.9854C19.22 68.4854 22.9 72.1454 27.4 72.1454C31.91 72.1454 35.56 68.4754 35.56 63.9654ZM24.36 63.9754C24.36 62.3054 25.72 60.9454 27.38 60.9354C29.05 60.9354 30.43 62.3054 30.42 63.9754C30.42 65.6454 29.05 66.9954 27.39 66.9954C25.72 66.9954 24.36 65.6354 24.36 63.9654V63.9754Z" fill="#25408F"/>
<path d="M64.7799 72.1454C69.2799 72.1454 72.9499 68.4754 72.9399 63.9654C72.9399 59.4454 69.2699 55.8054 64.7399 55.8054C60.2299 55.8054 56.5999 59.4854 56.6099 64.0454C56.6099 68.4954 60.2999 72.1454 64.7799 72.1354V72.1454ZM64.7699 67.0054C63.0999 67.0054 61.7399 65.6454 61.7399 63.9754C61.7399 62.3054 63.1099 60.9354 64.7799 60.9454C66.4499 60.9454 67.7999 62.3154 67.7899 63.9854C67.7899 65.6554 66.4299 67.0154 64.7599 67.0054H64.7699Z" fill="#25408F"/>
<path d="M63.5902 52.9356C63.2702 52.2256 63.0002 51.5256 62.6602 50.8556C61.7102 48.9656 60.4402 47.3256 58.7102 46.0756C58.0502 45.5956 57.3302 45.2056 56.5702 44.9256C56.4102 44.8656 56.3402 44.7756 56.2902 44.6256C55.6802 42.7456 55.0602 40.8556 54.4502 38.9756C54.4302 38.9056 54.4002 38.8356 54.3702 38.7456C54.2302 38.8056 54.1102 38.8456 54.0002 38.9056C53.9502 38.9356 53.9102 39.0056 53.9002 39.0656C53.6902 40.1656 52.8202 40.8356 51.7002 40.7556C51.1902 40.7156 50.6902 40.6656 50.1802 40.6156C50.1502 40.6156 50.1102 40.5956 50.0802 40.6156C49.6302 40.7856 49.1502 40.9256 48.8302 41.3356C48.5702 41.6756 48.6802 42.0656 49.0902 42.2356C49.5402 42.4156 49.9802 42.3356 50.4102 42.1656C50.9902 41.9456 51.5602 41.7056 52.1302 41.4756C52.2502 41.4256 52.3602 41.3856 52.5102 41.3256C54.5002 47.0356 56.4902 52.7356 58.4802 58.4456C58.7702 58.1756 59.0302 57.9056 59.3102 57.6656C62.8802 54.5656 68.3402 55.0656 71.2902 58.7556C71.5402 59.0656 72.3602 59.1756 72.6802 58.9456C72.8102 58.8556 72.8802 58.7356 72.8302 58.5856C72.7602 58.3656 72.6902 58.1356 72.5802 57.9256C71.9202 56.7056 70.9702 55.7556 69.8602 54.9456C68.0502 53.6156 66.0102 52.9456 63.7702 52.9256C63.7002 52.9256 63.6302 52.9256 63.6002 52.9256L63.5902 52.9356Z" fill="#25408F"/>
<path d="M49.3999 17.5754C49.2499 16.7654 48.9799 16.0254 48.5699 15.3554C47.5199 13.6254 45.9999 12.5254 44.0099 12.1354C42.1099 11.7654 40.3499 12.1554 38.7699 13.2854C37.3699 14.2854 36.4699 15.6454 36.0999 17.3354C35.7399 18.9254 35.9399 20.4654 36.6899 21.9154C37.1699 22.8454 38.0099 23.3654 38.9799 23.6754C39.8999 23.9754 40.8599 24.0654 41.8199 24.0354C42.4999 24.0154 43.1799 23.9454 43.8599 23.8954C43.8699 23.8954 43.8899 23.8954 43.8999 23.8954C44.6599 23.7654 44.8699 23.5054 44.8399 22.7354C44.8099 22.0854 44.7399 21.4454 44.7299 20.7954C44.7199 19.9954 44.9099 19.2654 45.5399 18.7154C46.0299 18.2854 46.6299 18.0654 47.2499 17.9354C47.8699 17.8054 48.4999 17.7254 49.1199 17.6254C49.2099 17.6154 49.2999 17.5954 49.4099 17.5854L49.3999 17.5754Z" fill="#25408F"/>
<path d="M51.7202 40.5855C53.0802 40.7155 54.0601 39.4355 53.6401 38.1955C53.4001 37.4755 52.7602 36.9955 51.9502 36.9555C50.3502 36.8655 48.7801 36.6355 47.2601 36.1455C44.6401 35.3155 42.4202 33.9155 40.8102 31.6455C40.3802 31.0455 40.0301 30.3955 39.7801 29.6955C39.4401 28.7455 38.3802 28.2455 37.4502 28.5855C36.5002 28.9255 36.0101 29.9755 36.3601 30.9355C36.8801 32.3455 37.6701 33.5855 38.6401 34.7155C40.7001 37.1255 43.3002 38.7055 46.3102 39.6355C47.8902 40.1255 49.9102 40.4755 51.7202 40.5655V40.5855Z" fill="#25408F"/>
<path d="M38.9299 23.9255C39.2499 24.2355 39.5399 24.5655 39.8799 24.8455C41.0799 25.8055 42.4499 26.2455 43.9799 26.0955C45.8099 25.9155 47.2699 25.0455 48.2699 23.4955C49.3299 21.8555 49.4799 20.0955 48.7899 18.2755C48.6299 17.8655 48.6299 17.8555 48.2099 17.9255C47.5499 18.0255 46.8999 18.1555 46.2799 18.4455C45.4199 18.8355 44.9499 19.5155 44.9099 20.4455C44.8899 21.0655 44.9499 21.6955 44.9699 22.3155C44.9699 22.5655 44.9999 22.8155 44.9899 23.0655C44.9799 23.5155 44.7599 23.8255 44.3299 23.9455C44.0699 24.0255 43.7899 24.0855 43.5199 24.1155C42.1299 24.2555 40.7299 24.3055 39.3499 23.9755C39.2199 23.9455 39.0999 23.9155 38.9699 23.8755C38.9599 23.8955 38.9399 23.9155 38.9299 23.9355V23.9255Z" fill="#5A81E5"/>
<path d="M61.8199 40.5255C61.7999 39.5355 61.7199 38.6255 61.3499 37.7755C61.2099 37.4555 60.9999 37.1655 60.7799 36.8955C60.6199 36.6955 60.3699 36.6455 60.1199 36.6755C59.4699 36.7355 58.8999 36.9955 58.3799 37.3655C57.6499 37.8755 57.0699 38.5255 56.7299 39.3655C56.4599 40.0255 56.4099 40.7155 56.6699 41.3755C57.2299 42.8055 58.2599 43.7555 59.7399 44.1755C60.4299 44.3755 60.7899 44.2055 61.1499 43.5855C61.5699 42.8655 61.7099 42.0655 61.7899 41.2455C61.8099 40.9855 61.8199 40.7155 61.8299 40.5255H61.8199Z" fill="#5A81E5"/>
</svg>
